<svg width="39" height="40" viewBox="0 0 39 40" fill="none" xmlns="http://www.w3.org/2000/svg">
<rect x="0.875" width="38.125" height="40" fill="#424242"/>
<path d="M26.3228 12.0261L11.8538 25.1822C11.3822 25.6109 11.3476 26.3407 11.7763 26.8123L11.858 26.9021C12.2867 27.3736 13.0165 27.4083 13.4881 26.9796L27.9571 13.8235C28.4286 13.3948 28.4633 12.665 28.0345 12.1935L27.9528 12.1036C27.5241 11.6321 26.7943 11.5974 26.3228 12.0261Z" fill="white"/>
<path d="M27.9509 25.4294L13.923 11.804C13.4658 11.36 12.7353 11.3706 12.2912 11.8277L12.2066 11.9149C11.7626 12.372 11.7732 13.1026 12.2304 13.5466L26.2583 27.172C26.7155 27.616 27.446 27.6054 27.89 27.1482L27.9747 27.0611C28.4187 26.6039 28.408 25.8734 27.9509 25.4294Z" fill="white"/>
</svg>
