<svg width="33" height="32" viewBox="0 0 33 32" fill="none" xmlns="http://www.w3.org/2000/svg">
<path d="M16.2 12.0733C15.4152 12.0733 14.648 12.3036 13.9954 12.7351C13.3429 13.1665 12.8343 13.7798 12.534 14.4973C12.2337 15.2148 12.1551 16.0043 12.3082 16.766C12.4613 17.5277 12.8392 18.2274 13.3942 18.7765C13.9491 19.3257 14.6561 19.6997 15.4258 19.8512C16.1955 20.0027 16.9934 19.9249 17.7184 19.6277C18.4435 19.3305 19.0632 18.8272 19.4992 18.1815C19.9352 17.5358 20.1679 16.7766 20.1679 16C20.1679 15.4843 20.0653 14.9737 19.8659 14.4973C19.6665 14.0209 19.3742 13.588 19.0057 13.2234C18.6373 12.8588 18.1999 12.5695 17.7184 12.3722C17.237 12.1749 16.721 12.0733 16.2 12.0733ZM32.0879 8.19413C32.0795 6.97141 31.852 5.75986 31.4159 4.61579C31.0948 3.77862 30.5979 3.01836 29.9581 2.38517C29.3182 1.75198 28.5499 1.26026 27.704 0.942459C26.5478 0.510944 25.3235 0.285789 24.088 0.277459C22.024 0.166626 21.4159 0.166626 16.2 0.166626C10.984 0.166626 10.376 0.166626 8.31195 0.277459C7.07636 0.285789 5.85206 0.510944 4.69595 0.942459C3.84997 1.26026 3.0817 1.75198 2.44185 2.38517C1.80199 3.01836 1.3051 3.77862 0.983951 4.61579C0.547893 5.75986 0.320369 6.97141 0.311951 8.19413C0.199951 10.2366 0.199951 10.8383 0.199951 16C0.199951 21.1616 0.199951 21.7633 0.311951 23.8058C0.329173 25.0328 0.55639 26.2481 0.983951 27.4C1.30368 28.2333 1.80016 28.9892 2.43995 29.6166C3.07706 30.2536 3.84697 30.7453 4.69595 31.0575C5.85206 31.489 7.07636 31.7141 8.31195 31.7225C10.376 31.8333 10.984 31.8333 16.2 31.8333C21.4159 31.8333 22.024 31.8333 24.088 31.7225C25.3235 31.7141 26.5478 31.489 27.704 31.0575C28.5529 30.7453 29.3228 30.2536 29.96 29.6166C30.5997 28.9892 31.0962 28.2333 31.4159 27.4C31.8516 26.2503 32.0791 25.0336 32.0879 23.8058C32.1999 21.7633 32.1999 21.1616 32.1999 16C32.1999 10.8383 32.1999 10.2366 32.0879 8.19413ZM28.0239 20.8608C27.9726 21.8379 27.7619 22.8003 27.3999 23.7108C27.0893 24.4703 26.6276 25.1602 26.0421 25.7396C25.4567 26.319 24.7594 26.7759 23.992 27.0833C23.0632 27.4215 22.0852 27.6086 21.096 27.6375C19.832 27.6375 19.4959 27.6375 16.2 27.6375C12.904 27.6375 12.5679 27.6375 11.3039 27.6375C10.3147 27.6086 9.33673 27.4215 8.40795 27.0833C7.61452 26.7915 6.89799 26.326 6.31195 25.7216C5.73222 25.1536 5.2845 24.4674 4.99995 23.7108C4.65684 22.7926 4.47292 21.8237 4.45595 20.845C4.45595 19.5941 4.45595 19.2616 4.45595 16C4.45595 12.7383 4.45595 12.4058 4.45595 11.155C4.47292 10.1762 4.65684 9.20728 4.99995 8.28913C5.2948 7.50396 5.76519 6.7949 6.37595 6.21496C6.95248 5.64436 7.64517 5.20177 8.40795 4.91663C9.33673 4.57843 10.3147 4.39129 11.3039 4.36246C12.5679 4.36246 12.904 4.36246 16.2 4.36246C19.4959 4.36246 19.832 4.36246 21.096 4.36246C22.0852 4.39129 23.0632 4.57843 23.992 4.91663C24.7854 5.2084 25.5019 5.67389 26.088 6.27829C26.6677 6.84631 27.1154 7.5325 27.3999 8.28913C27.7417 9.20823 27.9308 10.176 27.96 11.155C27.96 12.4058 27.96 12.7383 27.96 16C27.96 19.2616 28.0719 19.5941 28.0239 20.845V20.8608ZM25.464 9.08079C25.2734 8.56935 24.9731 8.10489 24.5836 7.71946C24.1941 7.33403 23.7248 7.03681 23.2079 6.84829C22.4983 6.60487 21.7509 6.48696 20.9999 6.49996C19.752 6.49996 19.4 6.49996 16.2 6.49996C13 6.49996 12.648 6.49996 11.4 6.49996C10.6452 6.50726 9.89766 6.64663 9.19195 6.91163C8.68304 7.09158 8.21866 7.37667 7.82968 7.74794C7.44071 8.11922 7.13605 8.56817 6.93595 9.06496C6.70359 9.77012 6.59008 10.5083 6.59995 11.25C6.59995 12.485 6.59995 12.8333 6.59995 16C6.59995 19.1666 6.59995 19.515 6.59995 20.75C6.61581 21.496 6.75638 22.2343 7.01595 22.935C7.20645 23.4464 7.50681 23.9109 7.89629 24.2963C8.28578 24.6817 8.75513 24.9789 9.27195 25.1675C9.95462 25.4159 10.673 25.5549 11.4 25.5791C12.648 25.5791 13 25.5791 16.2 25.5791C19.4 25.5791 19.752 25.5791 20.9999 25.5791C21.7547 25.5718 22.5022 25.4325 23.2079 25.1675C23.7248 24.9789 24.1941 24.6817 24.5836 24.2963C24.9731 23.9109 25.2734 23.4464 25.464 22.935C25.7317 22.2366 25.8726 21.4969 25.8799 20.75C25.8799 19.515 25.8799 19.1666 25.8799 16C25.8799 12.8333 25.8799 12.485 25.8799 11.25C25.8804 10.5023 25.7393 9.76119 25.464 9.06496V9.08079ZM16.2 22.0483C15.3981 22.0483 14.6041 21.8917 13.8634 21.5876C13.1228 21.2834 12.45 20.8377 11.8838 20.2758C11.3175 19.714 10.8688 19.0471 10.5634 18.3134C10.258 17.5796 10.1018 16.7935 10.1039 16C10.104 14.803 10.4628 13.633 11.1351 12.638C11.8074 11.6431 12.7629 10.8678 13.8807 10.4105C14.9985 9.95321 16.2282 9.83436 17.4142 10.069C18.6003 10.3037 19.6893 10.8813 20.5434 11.7288C21.3976 12.5762 21.9784 13.6554 22.2125 14.8297C22.4465 16.004 22.3232 17.2206 21.8581 18.3255C21.393 19.4305 20.6072 20.374 19.5999 21.0367C18.5927 21.6994 17.4095 22.0514 16.2 22.0483ZM22.5999 11.1391C22.2463 11.1021 21.9189 10.9368 21.681 10.6752C21.4432 10.4135 21.3115 10.074 21.3115 9.72204C21.3115 9.37008 21.4432 9.03057 21.681 8.76892C21.9189 8.50728 22.2463 8.34201 22.5999 8.30496C22.9536 8.34201 23.281 8.50728 23.5189 8.76892C23.7567 9.03057 23.8884 9.37008 23.8884 9.72204C23.8884 10.074 23.7567 10.4135 23.5189 10.6752C23.281 10.9368 22.9536 11.1021 22.5999 11.1391Z" fill="#884F34"/>
</svg>
