<svg width="33" height="32" viewBox="0 0 33 32" fill="none" xmlns="http://www.w3.org/2000/svg">
<path d="M16.2 12.0734C15.4152 12.0734 14.648 12.3036 13.9954 12.7351C13.3429 13.1666 12.8343 13.7798 12.534 14.4973C12.2337 15.2149 12.1551 16.0044 12.3082 16.7661C12.4613 17.5278 12.8392 18.2274 13.3942 18.7766C13.9491 19.3257 14.6561 19.6997 15.4258 19.8512C16.1955 20.0027 16.9934 19.925 17.7184 19.6278C18.4435 19.3306 19.0632 18.8273 19.4992 18.1816C19.9352 17.5358 20.1679 16.7766 20.1679 16C20.1679 15.4844 20.0653 14.9738 19.8659 14.4973C19.6665 14.0209 19.3742 13.5881 19.0058 13.2234C18.6373 12.8588 18.1999 12.5696 17.7184 12.3723C17.237 12.1749 16.721 12.0734 16.2 12.0734ZM32.0879 8.19419C32.0795 6.97147 31.852 5.75992 31.4159 4.61585C31.0948 3.77868 30.5979 3.01842 29.9581 2.38523C29.3182 1.75204 28.5499 1.26032 27.704 0.94252C26.5478 0.511005 25.3235 0.28585 24.0879 0.27752C22.024 0.166687 21.416 0.166687 16.2 0.166687C10.984 0.166687 10.376 0.166687 8.31195 0.27752C7.07636 0.28585 5.85207 0.511005 4.69595 0.94252C3.84997 1.26032 3.0817 1.75204 2.44185 2.38523C1.80199 3.01842 1.3051 3.77868 0.983951 4.61585C0.547893 5.75992 0.320369 6.97147 0.311951 8.19419C0.199951 10.2367 0.199951 10.8384 0.199951 16C0.199951 21.1617 0.199951 21.7634 0.311951 23.8059C0.329173 25.0329 0.55639 26.2481 0.983951 27.4C1.30368 28.2334 1.80016 28.9892 2.43995 29.6167C3.07706 30.2537 3.84697 30.7454 4.69595 31.0575C5.85207 31.489 7.07636 31.7142 8.31195 31.7225C10.376 31.8334 10.984 31.8334 16.2 31.8334C21.416 31.8334 22.024 31.8334 24.0879 31.7225C25.3235 31.7142 26.5478 31.489 27.704 31.0575C28.5529 30.7454 29.3228 30.2537 29.9599 29.6167C30.5997 28.9892 31.0962 28.2334 31.4159 27.4C31.8516 26.2503 32.0791 25.0337 32.0879 23.8059C32.1999 21.7634 32.1999 21.1617 32.1999 16C32.1999 10.8384 32.1999 10.2367 32.0879 8.19419ZM28.0239 20.8609C27.9726 21.8379 27.7619 22.8004 27.4 23.7109C27.0893 24.4704 26.6276 25.1603 26.0421 25.7397C25.4567 26.319 24.7594 26.776 23.992 27.0834C23.0632 27.4215 22.0852 27.6087 21.096 27.6375C19.832 27.6375 19.496 27.6375 16.2 27.6375C12.904 27.6375 12.568 27.6375 11.304 27.6375C10.3147 27.6087 9.33673 27.4215 8.40795 27.0834C7.61452 26.7916 6.89799 26.3261 6.31195 25.7217C5.73222 25.1537 5.2845 24.4675 4.99995 23.7109C4.65684 22.7927 4.47292 21.8238 4.45595 20.845C4.45595 19.5942 4.45595 19.2617 4.45595 16C4.45595 12.7384 4.45595 12.4059 4.45595 11.155C4.47292 10.1762 4.65684 9.20734 4.99995 8.28919C5.2948 7.50402 5.76519 6.79496 6.37595 6.21502C6.95248 5.64442 7.64517 5.20184 8.40795 4.91669C9.33673 4.5785 10.3147 4.39135 11.304 4.36252C12.568 4.36252 12.904 4.36252 16.2 4.36252C19.496 4.36252 19.832 4.36252 21.096 4.36252C22.0852 4.39135 23.0632 4.5785 23.992 4.91669C24.7854 5.20847 25.5019 5.67395 26.0879 6.27835C26.6677 6.84637 27.1154 7.53256 27.4 8.28919C27.7417 9.20829 27.9308 10.1761 27.9599 11.155C27.9599 12.4059 27.9599 12.7384 27.9599 16C27.9599 19.2617 28.0719 19.5942 28.0239 20.845V20.8609ZM25.464 9.08085C25.2735 8.56941 24.9731 8.10495 24.5836 7.71952C24.1941 7.3341 23.7248 7.03687 23.2079 6.84835C22.4983 6.60493 21.7509 6.48702 21 6.50002C19.7519 6.50002 19.4 6.50002 16.2 6.50002C13 6.50002 12.648 6.50002 11.4 6.50002C10.6452 6.50732 9.89766 6.64669 9.19195 6.91169C8.68304 7.09164 8.21866 7.37673 7.82968 7.748C7.44071 8.11928 7.13605 8.56823 6.93595 9.06502C6.70359 9.77018 6.59008 10.5084 6.59995 11.25C6.59995 12.485 6.59995 12.8334 6.59995 16C6.59995 19.1667 6.59995 19.515 6.59995 20.75C6.61581 21.4961 6.75638 22.2344 7.01595 22.935C7.20645 23.4465 7.50681 23.9109 7.89629 24.2963C8.28578 24.6818 8.75513 24.979 9.27195 25.1675C9.95462 25.416 10.673 25.5549 11.4 25.5792C12.648 25.5792 13 25.5792 16.2 25.5792C19.4 25.5792 19.7519 25.5792 21 25.5792C21.7547 25.5719 22.5022 25.4325 23.2079 25.1675C23.7248 24.979 24.1941 24.6818 24.5836 24.2963C24.9731 23.9109 25.2735 23.4465 25.464 22.935C25.7317 22.2367 25.8726 21.4969 25.8799 20.75C25.8799 19.515 25.8799 19.1667 25.8799 16C25.8799 12.8334 25.8799 12.485 25.8799 11.25C25.8804 10.5024 25.7393 9.76125 25.464 9.06502V9.08085ZM16.2 22.0484C15.3981 22.0484 14.6041 21.8918 13.8634 21.5876C13.1228 21.2835 12.45 20.8377 11.8838 20.2759C11.3175 19.714 10.8688 19.0471 10.5634 18.3134C10.258 17.5797 10.1018 16.7936 10.1039 16C10.104 14.8031 10.4628 13.6331 11.1351 12.6381C11.8074 11.6431 12.7629 10.8679 13.8807 10.4106C14.9985 9.95327 16.2282 9.83443 17.4142 10.0691C18.6003 10.3038 19.6893 10.8814 20.5434 11.7288C21.3976 12.5763 21.9784 13.6555 22.2125 14.8298C22.4465 16.0041 22.3232 17.2207 21.8581 18.3256C21.393 19.4305 20.6072 20.374 19.5999 21.0367C18.5927 21.6994 17.4095 22.0515 16.2 22.0484ZM22.5999 11.1392C22.2463 11.1021 21.9189 10.9369 21.681 10.6752C21.4432 10.4136 21.3115 10.0741 21.3115 9.7221C21.3115 9.37014 21.4432 9.03063 21.681 8.76898C21.9189 8.50734 22.2463 8.34207 22.5999 8.30502C22.9536 8.34207 23.281 8.50734 23.5189 8.76898C23.7567 9.03063 23.8884 9.37014 23.8884 9.7221C23.8884 10.0741 23.7567 10.4136 23.5189 10.6752C23.281 10.9369 22.9536 11.1021 22.5999 11.1392Z" fill="white"/>
</svg>
