<svg width="39" height="40" viewBox="0 0 39 40" fill="none" xmlns="http://www.w3.org/2000/svg">
<rect x="0.875" width="38.125" height="40" fill="#424242"/>
<path d="M28.05 17H11.95C11.4253 17 11 17.4253 11 17.95V18.05C11 18.5747 11.4253 19 11.95 19H28.05C28.5747 19 29 18.5747 29 18.05V17.95C29 17.4253 28.5747 17 28.05 17Z" fill="white"/>
<path d="M28.05 22H11.95C11.4253 22 11 22.4253 11 22.95V23.05C11 23.5747 11.4253 24 11.95 24H28.05C28.5747 24 29 23.5747 29 23.05V22.95C29 22.4253 28.5747 22 28.05 22Z" fill="white"/>
<path d="M28.05 12H11.95C11.4253 12 11 12.4253 11 12.95V13.05C11 13.5747 11.4253 14 11.95 14H28.05C28.5747 14 29 13.5747 29 13.05V12.95C29 12.4253 28.5747 12 28.05 12Z" fill="white"/>
</svg>
