<svg width="31" height="31" viewBox="0 0 31 31" fill="none" xmlns="http://www.w3.org/2000/svg">
<g clip-path="url(#clip0_2105_515)">
<mask id="mask0_2105_515" style="mask-type:luminance" maskUnits="userSpaceOnUse" x="0" y="0" width="31" height="31">
<path d="M31 0H0V31H31V0Z" fill="white"/>
</mask>
<g mask="url(#mask0_2105_515)">
<path d="M29.963 24.4861C30.1117 24.9327 29.8399 25.6873 29.3565 26.1707L26.2904 29.2368C25.5653 29.9624 24.2032 30.2419 23.251 29.8607L21.8342 29.2945C13.8987 26.1199 4.87862 17.1003 1.70451 9.16432L1.1378 7.748C0.757076 6.79572 1.03656 5.43366 1.76167 4.70855L4.82776 1.64246C5.31117 1.15857 6.06631 0.886833 6.51242 1.03602C8.96723 1.85413 11.6245 4.51093 12.4426 6.96574C12.5913 7.41185 12.3196 8.16699 11.8362 8.65039L10.0842 10.4024C9.60031 10.8858 9.45645 11.7751 9.76209 12.3864L10.2189 13.3004C11.595 16.0526 14.9464 19.404 17.6986 20.7801L18.6121 21.2369C19.2239 21.5425 20.1127 21.3982 20.5961 20.9148L22.3486 19.1628C22.832 18.6794 23.5866 18.4076 24.0332 18.5563C26.4876 19.3745 29.1448 22.0317 29.963 24.4861Z" fill="#424242"/>
<path d="M14.3109 5.62546L14.4242 6.86788C14.4552 7.2084 14.6882 7.44865 14.9449 7.4036C14.9449 7.4036 15.4201 7.36824 15.8986 7.38132C17.9267 7.42927 19.8584 8.26627 21.2907 9.70729C22.7317 11.1396 23.5682 13.0713 23.6205 15.1032C23.6385 15.761 23.5653 16.4115 23.5585 16.4372C23.4752 16.769 23.6777 17.1003 24.0109 17.1773L25.2156 17.4553C25.5488 17.5324 25.886 17.3251 25.9673 16.9933C26.024 16.7651 26.1189 15.9053 26.0957 15.0378C26.0298 12.3704 24.9303 9.83419 23.0427 7.9553C21.1633 6.06721 18.6276 4.96768 15.9602 4.90229C15.3857 4.88679 14.8156 4.92311 14.8156 4.92311C14.5061 4.9701 14.2803 5.28494 14.3109 5.62546Z" fill="#424242"/>
<path fill-rule="evenodd" clip-rule="evenodd" d="M13.9529 1.68662L14.0653 2.91984C14.0963 3.26036 14.3719 3.50448 14.6809 3.46428C14.6809 3.46428 15.2462 3.43425 15.811 3.44781C18.8989 3.53112 21.8293 4.79728 24.0018 6.98714L24.0105 6.99586C24.0061 6.9915 24.0061 6.9915 24.0018 6.98714C24.0061 6.9915 24.0061 6.9915 24.0061 6.9915L24.0105 6.99586C26.2008 9.16828 27.4708 12.1031 27.5498 15.1866C27.5721 16.1089 27.4781 17.0316 27.4108 17.3261C27.3347 17.6599 27.5435 17.9926 27.8768 18.0696L29.0853 18.3486C29.4185 18.4252 29.7503 18.2169 29.8264 17.8836C29.9397 17.3876 30.054 16.2571 30.0288 15.1256C29.9324 11.4022 28.4038 7.85901 25.7581 5.23951C25.7581 5.23951 25.7581 5.23951 25.7537 5.23516L25.7581 5.23951C23.1391 2.59386 19.5954 1.06517 15.8768 0.973139C15.2133 0.957155 14.5516 0.989608 14.5119 0.994452C14.1723 1.03611 13.9219 1.34611 13.9529 1.68662ZM25.7581 5.23951C25.7581 5.23951 25.7581 5.23951 25.7537 5.23516L25.7581 5.23951Z" fill="#424242"/>
</g>
</g>
<defs>
<clipPath id="clip0_2105_515">
<rect width="31" height="31" fill="white"/>
</clipPath>
</defs>
</svg>
