<svg width="32" height="32" viewBox="0 0 32 32" fill="none" xmlns="http://www.w3.org/2000/svg">
<g clip-path="url(#clip0_2315_223)">
<path d="M30.1719 25.6046C30.1719 28.1121 28.1121 30.1719 25.6046 30.1719H6.39538C3.88793 30.1719 1.82812 28.1121 1.82812 25.6046V6.39538C1.82812 3.88799 3.88794 1.82812 6.39538 1.82812H25.6046C28.1121 1.82812 30.1719 3.88799 30.1719 6.39538V25.6046Z" stroke="white" stroke-width="4"/>
<path d="M17.8925 14.2878L23.9761 7H22.214L17.0117 13.2325L11.8088 7H6L14.107 16.7117L8.02276 24H9.78491L14.9878 17.767L20.1912 24H26L17.8925 14.2878ZM8.86453 8.32105H11.149L23.1349 22.6788H20.8505L8.86453 8.32105Z" fill="white"/>
</g>
<defs>
<clipPath id="clip0_2315_223">
<rect width="32" height="32" fill="white"/>
</clipPath>
</defs>
</svg>
